<svg xmlns="http://www.w3.org/2000/svg" version="1.1" height="400" width="400">
  <defs>
    <filter id="blur">
      <feGaussianBlur in="SourceGraphic" stdDeviation=".05"/>
    </filter>
    <pattern id="stitch1" x="0" y="0" width=".007" height=".007">
      <polygon
        points="0,0, 0,3, 3,3, 3,0"
        fill="#2f565f"
      />
      <polygon
        points="1.2,.15, 2.85,.15, 2.85,2.55, 2,2.55, 2,1.6, 1.2,1.6"
        fill="#081d1f"
        filter="url(#blur)"
        transform="scale(.75)"
      />
    </pattern>
    <pattern id="stitch2" x="0" y="0" width=".007" height=".007">
      <polygon
        points="0,0, 0,3, 3,3, 3,0"
        fill="#081d1f"
      />
      <polygon
        points=".15,1.25, .75,1.25, .75,2.25, 1.3,2.25, 1.3,2.85, .15,2.85"
        fill="#2f565f"
        filter="url(#blur)"
      />
    </pattern>
    <pattern id="stitch3" x="0" y="0" width=".03" height=".03">
      <polygon
        points="0,0, 0,3, 3,3, 3,0"
        fill="#081d1f"
      />
      <polygon
        points=".15,1.25, .75,1.25, .75,2.25, 1.3,2.25, 1.3,2.85, .15,2.85"
        fill="#2f565f"
        filter="url(#blur)"
      />
    </pattern>
  </defs>
  <rect height="400" width="400" fill="url(#stitch1)"/>
  <polygon
    points="0,0, 200,0, 400,200, 300,200, 200,100, 200,200, 100,200, 200,300, 200,400, 0,200, 0,0"
    fill="url(#stitch2)"
  />
  <polygon
    points="400,0, 400,100, 300,0, 400, 0"
    fill="url(#stitch3)"
  />
  <polygon
    points="0,400, 100,400, 0,300, 0, 400"
    fill="url(#stitch3)"
  />
</svg>
