<svg xmlns="http://www.w3.org/2000/svg" version="1.1" height="400" width="400">
  <path d="M0 0 V400 H400 V0 Z" fill="#fff"/>

  <line x1="0" y1="0" x2="0" y2="400" stroke="#58c858" stroke-width="2px"/>
  <line x1="87" y1="0" x2="87" y2="400" stroke="#58c858" stroke-width="2px"/>
  <line x1="174" y1="0" x2="174" y2="400" stroke="#58c858" stroke-width="2px"/>
  <line x1="261" y1="0" x2="261" y2="400" stroke="#58c858" stroke-width="2px"/>
  <line x1="348" y1="0" x2="348" y2="400" stroke="#58c858" stroke-width="2px"/>

  <line x1="0" y1="-200" x2="400" y2="31" stroke="#58c858" stroke-width="2px"/>
  <line x1="0" y1="-100" x2="400" y2="131" stroke="#58c858" stroke-width="2px"/>
  <line x1="0" y1="0" x2="400" y2="231" stroke="#58c858" stroke-width="2px"/>
  <line x1="0" y1="100" x2="400" y2="331" stroke="#58c858" stroke-width="2px"/>
  <line x1="0" y1="200" x2="400" y2="431" stroke="#58c858" stroke-width="2px"/>
  <line x1="0" y1="300" x2="400" y2="531" stroke="#58c858" stroke-width="2px"/>

  <line x1="0" y1="100" x2="400" y2="-131" stroke="#58c858" stroke-width="2px"/>
  <line x1="0" y1="200" x2="400" y2="-31" stroke="#58c858" stroke-width="2px"/>
  <line x1="0" y1="300" x2="400" y2="69" stroke="#58c858" stroke-width="2px"/>
  <line x1="0" y1="400" x2="400" y2="169" stroke="#58c858" stroke-width="2px"/>
  <line x1="0" y1="500" x2="400" y2="269" stroke="#58c858" stroke-width="2px"/>
  <line x1="0" y1="600" x2="400" y2="369" stroke="#58c858" stroke-width="2px"/>

</svg>
