<svg
  x="0px"
   y="0px"
   width="16.780193"
   height="15.903095"
   viewBox="0 0 132.89913 125.95251"
   xmlns="http://www.w3.org/2000/svg" xmlns:svg="http://www.w3.org/2000/svg">
 <metadata id="metadata3071">image/svg+xml</metadata>

 <g>
  <title>Layer 1</title>
  <g transform="rotate(-89.8842, 66.4506, 62.9803)" id="g3057">
   <path d="m62.37576,36.90456l-13.33656,15.27024l59.64624,73.46128c2.5934,3.09531 7.22447,3.09531 10.00309,0l7.22446,-8.2542c2.77864,-2.88895 2.77864,-8.04782 0,-11.14314l-63.53724,-69.33418zm-55.94322,15.68298l10.00309,11.34952c2.03768,2.26989 5.18772,2.26989 7.4097,0l2.2229,-2.68263c1.6672,-1.65084 2.40816,-4.74616 1.48194,-6.19064c-1.66717,-1.23813 -1.11147,-4.95253 2.03768,-8.25419c4.44581,-5.15887 10.18834,-5.36524 12.4103,-2.68262c0.92621,0.82541 3.8901,4.33346 3.8901,4.33346l13.70794,-15.0639l-2.22292,-2.47625c0,0 -0.55571,-0.61907 -1.66719,-2.06356c-4.26055,-4.74616 0.18526,-10.1114 0.18526,-10.1114c12.04076,-13.2067 28.8969,-13.00036 28.8969,-13.00036l0.18526,-4.74613c-33.89938,-9.6987 -46.6802,6.80968 -51.31126,11.96855c-4.26056,4.74617 -8.70545,9.69766 -9.81786,10.93681c-2.40815,2.68262 0,10.31774 -3.51959,14.6512c-1.6672,1.85718 -3.8901,2.68262 -5.55727,2.68262c-1.85243,-1.85722 -4.81632,-1.23814 -6.29826,0.61904l-2.03766,2.47628c-2.03675,2.26989 -2.03675,5.77791 0.00094,8.2542z" id="path3059" fill="#000000"/>
  </g>
 </g>
</svg>
