<?xml version="1.0" encoding="UTF-8"?>
<svg width="248px" height="230px" viewBox="0 0 248 230" version="1.1" xmlns="http://www.w3.org/2000/svg" xmlns:xlink="http://www.w3.org/1999/xlink">
    <!-- Generator: Sketch 49.3 (51167) - http://www.bohemiancoding.com/sketch -->
    <title>Group</title>
    <desc>Created with Sketch.</desc>
    <defs></defs>
    <g id="Page-1" stroke="none" stroke-width="1" fill="none" fill-rule="evenodd" stroke-linecap="square">
        <g id="Group" stroke="#979797">
            <path d="M120.5,129.5 L198.5,13.5" id="Line"></path>
            <path d="M120.5,129.5 L243.5,186.5" id="Line"></path>
            <path d="M120.5,129.5 L64.5,229.5" id="Line"></path>
            <path d="M234.5,182.5 L160.5,203.5" id="Line"></path>
            <path d="M107.5,154.5 L150.5,143.5" id="Line"></path>
            <path d="M107.5,154.5 L150.5,143.5" id="Line"></path>
            <path d="M156.5,145.5 L166.5,124.5" id="Line"></path>
            <path d="M140.5,96.5 L104.5,73.5" id="Line"></path>
            <path d="M120.5,129.5 L50.5,16.5" id="Line"></path>
            <path d="M120.5,129.5 L82.5,0.5" id="Line"></path>
            <path d="M120.5,129.5 L247.5,114.5" id="Line"></path>
            <path d="M120.5,129.5 L95.5,142.5" id="Line"></path>
            <path d="M82.5,116.5 L95.5,142.5" id="Line"></path>
            <path d="M91.5,110.5 L53.5,136.5" id="Line"></path>
            <path d="M0.5,82.5 L53.5,136.5" id="Line"></path>
            <path d="M111.5,145.5 L53.5,136.5" id="Line"></path>
            <path d="M78.5,203.5 L53.5,136.5" id="Line"></path>
            <path d="M120.5,129.5 L92.5,135.5" id="Line"></path>
            <path d="M120.5,129.5 L7.5,58.5" id="Line"></path>
            <path d="M191.5,121.5 L162.5,68.5" id="Line"></path>
            <path d="M177.5,121.5 L152.5,85.5" id="Line"></path>
            <path d="M120.5,129.5 L7.5,58.5" id="Line"></path>
            <path d="M44.5,81.5 L86.5,75.5" id="Line"></path>
            <path d="M113.5,79.5 L147.5,53.5" id="Line"></path>
            <path d="M96.5,42.5 L167.5,58.5" id="Line"></path>
            <path d="M88.5,187.5 L159.5,203.5" id="Line"></path>
            <path d="M121.5,151.5 L157.5,171.5" id="Line"></path>
            <polyline id="Line" points="166.415084 151.131705 157.023343 172.44676 158.896187 203.5"></polyline>
            <path d="M174.5,48.5 L158.5,55.5" id="Line"></path>
        </g>
    </g>
</svg>