<svg
  x="0px"
   y="0px"
   width="16.780193"
   height="15.903095"
   viewBox="0 0 132.89913 125.95251"
    xmlns="http://www.w3.org/2000/svg" xmlns:svg="http://www.w3.org/2000/svg">
 <metadata id="metadata3071">image/svg+xml</metadata>

 <g>
  <title>Layer 1</title>
  <g id="g3057">
   <path fill="#000000" id="path3059" d="m62.109673,38.104828l-14.204201,14.56498l63.526657,70.068428c2.762123,2.95237 7.694481,2.95237 10.65387,0l7.694458,-7.872963c2.959412,-2.755531 2.959412,-7.676132 0,-10.628494l-67.670784,-66.13195zm-59.582738,14.958652l10.65386,10.825329c2.170243,2.165047 5.525222,2.165047 7.891751,0l2.367523,-2.55872c1.775658,-1.5746 2.564827,-4.526962 1.578352,-5.904724c-1.775633,-1.180958 -1.183781,-4.723801 2.170244,-7.872971c4.735048,-4.920605 10.851164,-5.117439 13.21768,-2.55872c0.986477,0.787285 4.143185,4.13332 4.143185,4.13332l14.599735,-14.368172l-2.367523,-2.361885c0,0 -0.591877,-0.590477 -1.775658,-1.968241c-4.537731,-4.526962 0.197304,-9.644405 0.197304,-9.644405c12.8241,-12.596735 30.776859,-12.399929 30.776859,-12.399929l0.197304,-4.526932c-36.104774,-9.250761 -49.717079,6.495175 -54.649418,11.41578c-4.537741,4.526962 -9.271807,9.249771 -10.456581,10.431686c-2.564827,2.558723 0,9.841211 -3.748569,13.974531c-1.77566,1.771404 -4.143182,2.55872 -5.918815,2.55872c-1.972938,-1.771435 -5.129656,-1.180958 -6.708009,0.59045l-2.170218,2.361912c-2.16925,2.165051 -2.16925,5.511055 0.000993,7.872971z"/>
  </g>
 </g>
</svg>
